# xmcd
#
# Track frame offsets:
#	150
#	12414
#	23815
#	35561
#	48428
#	58315
#	72029
#	84943
#	94878
#	107607
#	122654
#	144898
#
# Disc length: 2628 seconds
#
# Revision: 1
# Processed by: cddbd v1.5.2PL0 Copyright (c) Steve Scherf et al.
# Submitted via: EasyCDDAExtractor 16.0.1.1
#
DISCID=990a420c
DTITLE=Cari Lee and the Contenders - Scorched
DYEAR=2005
DGENRE=Rock and Roll
TTITLE0=I Think About You
TTITLE1=The Lover's Curse
TTITLE2=Scorched
TTITLE3=Fine Fine Man
TTITLE4=Burnt Toast and Black Coffee
TTITLE5=How Come?
TTITLE6=I'm a Little Mixed Up
TTITLE7=Don't be a Fool
TTITLE8=You Shock Me
TTITLE9=Little Red Rooster
TTITLE10=Now I'm Gonna Roll
TTITLE11=DATA
EXTD=
EXTT0=
EXTT1=
EXTT2=
EXTT3=
EXTT4=
EXTT5=
EXTT6=
EXTT7=
EXTT8=
EXTT9=
EXTT10=
EXTT11=
PLAYORDER=
